<?xml version="1.0" encoding="utf-8"?>
<svg version="1.1" id="Layer_1" xmlns="http://www.w3.org/2000/svg" xmlns:xlink="http://www.w3.org/1999/xlink" x="0px" y="0px"
	 viewBox="0 0 30 30" enable-background="new 0 0 30 30" xml:space="preserve">
<circle fill="#FF5F65" cx="15" cy="15" r="15"/>
<path fill="#FFFFFF" d="M14.1,21c0,0.3-0.2,0.6-0.5,0.7c-0.1,0.1-0.2,0.1-0.3,0.1c-0.2,0-0.4-0.1-0.5-0.2l-4.3-3.7H6.2
	c-0.4,0-0.8-0.4-0.8-0.8c0,0,0,0,0,0v-3.3c0-0.4,0.3-0.8,0.8-0.8c0,0,0,0,0,0h2.3l4.3-3.7c0.2-0.2,0.6-0.2,0.8-0.1
	c0.3,0.1,0.5,0.4,0.5,0.7V21z M17.1,19.7L17.1,19.7c-0.3,0-0.5-0.1-0.6-0.2l-0.1-0.1c-0.3-0.3-0.3-0.7-0.1-1.1
	c1.2-1.8,1.2-4.1-0.1-5.8c-0.3-0.3-0.2-0.8,0.1-1.1l0.1-0.1c0.2-0.2,0.4-0.3,0.6-0.2c0.2,0,0.4,0.1,0.6,0.3c1.8,2.4,1.9,5.6,0.2,8.1
	C17.5,19.6,17.3,19.7,17.1,19.7L17.1,19.7z M20.3,22.2c-0.1,0.2-0.3,0.3-0.6,0.3h0c-0.2,0-0.4-0.1-0.6-0.2l-0.1-0.1
	c-0.3-0.3-0.3-0.8,0-1.1c2.7-3.3,2.6-8.1-0.1-11.4c-0.3-0.3-0.3-0.8,0-1.1L19,8.4c0.1-0.2,0.4-0.2,0.6-0.2c0.2,0,0.4,0.1,0.6,0.3
	C23.5,12.4,23.5,18.2,20.3,22.2L20.3,22.2z"/>
</svg>
