<?xml version="1.0" encoding="utf-8"?>
<svg version="1.1" id="Layer_1" xmlns="http://www.w3.org/2000/svg" xmlns:xlink="http://www.w3.org/1999/xlink" x="0px" y="0px"
	 viewBox="0 0 30 30" enable-background="new 0 0 30 30" xml:space="preserve">
<circle fill="#FF5F65" cx="15" cy="15" r="15"/>
<path fill="#FFFFFF" d="M10.5,7.5L10.5,7.5C11.3,7.5,12,8.2,12,9v12c0,0.8-0.7,1.5-1.5,1.5l0,0C9.7,22.5,9,21.8,9,21V9
	C9,8.2,9.7,7.5,10.5,7.5z"/>
<path fill="#FFFFFF" d="M19.5,7.5L19.5,7.5C20.3,7.5,21,8.2,21,9v12c0,0.8-0.7,1.5-1.5,1.5l0,0c-0.8,0-1.5-0.7-1.5-1.5V9
	C18,8.2,18.7,7.5,19.5,7.5z"/>
</svg>
